<?xml version="1.0" encoding="UTF-8" standalone="no"?>
<!DOCTYPE svg PUBLIC "-//W3C//DTD SVG 1.1//EN" "http://www.w3.org/Graphics/SVG/1.1/DTD/svg11.dtd">
<svg width="100%" height="100%" viewBox="0 0 50 50" version="1.1" xmlns="http://www.w3.org/2000/svg" xmlns:xlink="http://www.w3.org/1999/xlink" xml:space="preserve" xmlns:serif="http://www.serif.com/" style="fill-rule:evenodd;clip-rule:evenodd;stroke-linejoin:round;stroke-miterlimit:1.41421;">
    <path id="github" d="M24.998,3.042c-12.433,0 -22.513,10.08 -22.513,22.515c0,9.948 6.451,18.386 15.397,21.365c1.127,0.205 1.537,-0.49 1.537,-1.087c0,-0.533 -0.019,-1.95 -0.03,-3.828c-6.263,1.36 -7.584,-3.019 -7.584,-3.019c-1.024,-2.6 -2.5,-3.293 -2.5,-3.293c-2.045,-1.397 0.154,-1.369 0.154,-1.369c2.26,0.16 3.449,2.32 3.449,2.32c2.008,3.441 5.27,2.447 6.553,1.872c0.204,-1.456 0.785,-2.448 1.429,-3.01c-4.999,-0.569 -10.256,-2.501 -10.256,-11.128c0,-2.458 0.878,-4.468 2.318,-6.042c-0.232,-0.569 -1.005,-2.858 0.22,-5.958c0,0 1.891,-0.606 6.192,2.308c1.796,-0.499 3.722,-0.749 5.637,-0.758c1.911,0.009 3.838,0.259 5.636,0.758c4.299,-2.914 6.185,-2.308 6.185,-2.308c1.229,3.1 0.457,5.389 0.224,5.958c1.443,1.574 2.316,3.584 2.316,6.042c0,8.649 -5.265,10.553 -10.281,11.11c0.808,0.695 1.529,2.069 1.529,4.17c0,3.009 -0.028,5.437 -0.028,6.175c0,0.603 0.405,1.304 1.548,1.084c8.94,-2.984 15.385,-11.417 15.385,-21.362c0,-12.435 -10.082,-22.515 -22.517,-22.515"/>
</svg>
