<?xml version="1.0" encoding="UTF-8" standalone="no"?>
<!DOCTYPE svg PUBLIC "-//W3C//DTD SVG 1.1//EN" "http://www.w3.org/Graphics/SVG/1.1/DTD/svg11.dtd">
<svg width="100%" height="100%" viewBox="0 0 50 50" version="1.1" xmlns="http://www.w3.org/2000/svg" xmlns:xlink="http://www.w3.org/1999/xlink" xml:space="preserve" xmlns:serif="http://www.serif.com/" style="fill-rule:evenodd;clip-rule:evenodd;stroke-linejoin:round;stroke-miterlimit:1.41421;">
    <path id="instagram" d="M24.993,5c-5.434,0 -6.115,0.023 -8.249,0.12c-2.13,0.098 -3.584,0.436 -4.857,0.93c-1.316,0.512 -2.432,1.196 -3.544,2.308c-1.112,1.112 -1.796,2.228 -2.308,3.544c-0.494,1.273 -0.832,2.727 -0.93,4.857c-0.097,2.134 -0.12,2.815 -0.12,8.249c0,5.434 0.023,6.115 0.12,8.249c0.098,2.13 0.436,3.584 0.93,4.857c0.512,1.316 1.196,2.431 2.308,3.544c1.112,1.112 2.228,1.796 3.544,2.307c1.273,0.495 2.727,0.833 4.857,0.93c2.134,0.098 2.815,0.121 8.249,0.121c5.434,0 6.115,-0.023 8.249,-0.121c2.13,-0.097 3.584,-0.435 4.857,-0.93c1.316,-0.511 2.431,-1.195 3.544,-2.307c1.112,-1.113 1.796,-2.228 2.307,-3.544c0.495,-1.273 0.833,-2.727 0.93,-4.857c0.098,-2.134 0.121,-2.815 0.121,-8.249c0,-5.434 -0.023,-6.115 -0.121,-8.249c-0.097,-2.13 -0.435,-3.584 -0.93,-4.857c-0.511,-1.316 -1.195,-2.432 -2.307,-3.544c-1.113,-1.112 -2.228,-1.796 -3.544,-2.308c-1.273,-0.494 -2.727,-0.832 -4.857,-0.93c-2.134,-0.097 -2.815,-0.12 -8.249,-0.12Zm0,3.605c5.342,0 5.975,0.02 8.085,0.117c1.951,0.089 3.01,0.415 3.715,0.689c0.934,0.363 1.6,0.796 2.3,1.496c0.701,0.7 1.134,1.367 1.497,2.301c0.274,0.705 0.6,1.764 0.689,3.715c0.096,2.11 0.117,2.743 0.117,8.085c0,5.342 -0.021,5.975 -0.117,8.085c-0.089,1.951 -0.415,3.01 -0.689,3.715c-0.363,0.934 -0.796,1.6 -1.497,2.3c-0.7,0.701 -1.366,1.134 -2.3,1.497c-0.705,0.274 -1.764,0.6 -3.715,0.689c-2.11,0.096 -2.742,0.117 -8.085,0.117c-5.343,0 -5.975,-0.021 -8.085,-0.117c-1.951,-0.089 -3.01,-0.415 -3.715,-0.689c-0.934,-0.363 -1.601,-0.796 -2.301,-1.497c-0.7,-0.7 -1.134,-1.366 -1.496,-2.3c-0.274,-0.705 -0.6,-1.764 -0.689,-3.715c-0.097,-2.11 -0.117,-2.743 -0.117,-8.085c0,-5.342 0.02,-5.975 0.117,-8.085c0.089,-1.951 0.415,-3.01 0.689,-3.715c0.362,-0.934 0.796,-1.601 1.496,-2.301c0.7,-0.7 1.367,-1.133 2.301,-1.496c0.705,-0.274 1.764,-0.6 3.715,-0.689c2.11,-0.097 2.743,-0.117 8.085,-0.117Zm0,6.129c-5.674,0 -10.274,4.6 -10.274,10.274c0,5.674 4.6,10.274 10.274,10.274c5.674,0 10.274,-4.6 10.274,-10.274c0,-5.674 -4.6,-10.274 -10.274,-10.274Zm0,16.943c-3.683,0 -6.669,-2.986 -6.669,-6.669c0,-3.683 2.986,-6.669 6.669,-6.669c3.683,0 6.669,2.986 6.669,6.669c0,3.683 -2.986,6.669 -6.669,6.669Zm13.081,-17.349c0,1.326 -1.075,2.401 -2.401,2.401c-1.326,0 -2.401,-1.075 -2.401,-2.401c0,-1.326 1.075,-2.401 2.401,-2.401c1.326,0 2.401,1.075 2.401,2.401Z" style="fill-rule:nonzero;"/>
</svg>
