<?xml version="1.0" encoding="UTF-8" standalone="no"?>
<!DOCTYPE svg PUBLIC "-//W3C//DTD SVG 1.1//EN" "http://www.w3.org/Graphics/SVG/1.1/DTD/svg11.dtd">
<svg width="100%" height="100%" viewBox="0 0 38 38" version="1.1" xmlns="http://www.w3.org/2000/svg" xmlns:xlink="http://www.w3.org/1999/xlink" xml:space="preserve" xmlns:serif="http://www.serif.com/" style="fill-rule:evenodd;clip-rule:evenodd;stroke-linejoin:round;stroke-miterlimit:1.41421;">
    <path id="link" d="M34.91,17.232l-17.678,17.678c-2.927,2.927 -7.679,2.927 -10.606,0l-3.536,-3.536c-2.927,-2.927 -2.927,-7.679 0,-10.606l17.678,-17.678c2.927,-2.927 7.679,-2.927 10.606,0l3.536,3.536c2.927,2.927 2.927,7.679 0,10.606Zm-10.607,-10.606l-17.677,17.677c-0.976,0.976 -0.976,2.56 0,3.536l3.535,3.535c0.976,0.976 2.56,0.976 3.536,0l17.677,-17.677c0.976,-0.976 0.976,-2.56 0,-3.536l-3.535,-3.535c-0.976,-0.976 -2.56,-0.976 -3.536,0Z"/>
</svg>
