<?xml version="1.0" encoding="UTF-8" standalone="no"?>
<!DOCTYPE svg PUBLIC "-//W3C//DTD SVG 1.1//EN" "http://www.w3.org/Graphics/SVG/1.1/DTD/svg11.dtd">
<svg width="100%" height="100%" viewBox="0 0 50 50" version="1.1" xmlns="http://www.w3.org/2000/svg" xmlns:xlink="http://www.w3.org/1999/xlink" xml:space="preserve" xmlns:serif="http://www.serif.com/" style="fill-rule:evenodd;clip-rule:evenodd;stroke-linejoin:round;stroke-miterlimit:1.41421;">
    <path id="youtube" d="M48.877,12.985c-0.574,-2.148 -2.266,-3.839 -4.414,-4.413c-3.893,-1.044 -19.503,-1.044 -19.503,-1.044c0,0 -15.61,0 -19.504,1.044c-2.147,0.574 -3.839,2.265 -4.413,4.413c-1.043,3.893 -1.043,12.015 -1.043,12.015c0,0 0,8.123 1.043,12.016c0.574,2.147 2.266,3.839 4.413,4.413c3.894,1.043 19.504,1.043 19.504,1.043c0,0 15.61,0 19.503,-1.043c2.148,-0.574 3.84,-2.266 4.414,-4.413c1.042,-3.893 1.042,-12.016 1.042,-12.016c0,0 0,-8.122 -1.042,-12.015Zm-28.909,19.503l0,-14.976l12.969,7.488l-12.969,7.488Z" style="fill-rule:nonzero;"/>
</svg>
